<svg xmlns="http://www.w3.org/2000/svg" viewBox="0 0 960 995" role="img" aria-labelledby="title"><title id="title">Del símbolo a los terminales y a la función</title><rect width="960" height="995" fill="white"/><g font-family="Arial, sans-serif"><text x="24" y="34" font-size="24" fill="#b93649" text-anchor="start">Del símbolo a los terminales y a la función</text><rect x="15" y="65" width="300" height="210" rx="10" fill="#f8fafb" stroke="#d5e0e4" stroke-width="2"/><text x="29" y="93" font-size="21" fill="#263c4a" text-anchor="start">Fuente CC</text><path d="M160,108 L160,130" stroke="#263c4a" stroke-width="3" fill="none" stroke-dasharray=""/><circle cx="160" cy="158" r="28" fill="white" stroke="#263c4a" stroke-width="2"/><text x="160" y="151" font-size="20" fill="#b93649" text-anchor="middle">+</text><text x="160" y="176" font-size="20" fill="#176c9a" text-anchor="middle">−</text><path d="M160,186 L160,208" stroke="#263c4a" stroke-width="3" fill="none" stroke-dasharray=""/><text x="117" y="162" font-size="18" fill="#263c4a" text-anchor="end"></text><text x="29" y="231" font-size="16" fill="#263c4a" text-anchor="start">+ / −</text><text x="29" y="259" font-size="16" fill="#263c4a" text-anchor="start">Mantiene tensión</text><rect x="330" y="65" width="300" height="210" rx="10" fill="#f8fafb" stroke="#d5e0e4" stroke-width="2"/><text x="344" y="93" font-size="21" fill="#263c4a" text-anchor="start">Resistencia</text><path d="M470,105 L470,125" stroke="#263c4a" stroke-width="3" fill="none" stroke-dasharray=""/><rect x="458" y="125" width="24" height="55" rx="0" fill="white" stroke="#263c4a" stroke-width="2"/><path d="M470,180 L470,200" stroke="#263c4a" stroke-width="3" fill="none" stroke-dasharray=""/><text x="493" y="156" font-size="17" fill="#263c4a" text-anchor="start"></text><text x="344" y="231" font-size="16" fill="#263c4a" text-anchor="start">Dos extremos</text><text x="344" y="259" font-size="16" fill="#263c4a" text-anchor="start">Limita corriente</text><rect x="645" y="65" width="300" height="210" rx="10" fill="#f8fafb" stroke="#d5e0e4" stroke-width="2"/><text x="659" y="93" font-size="21" fill="#263c4a" text-anchor="start">Condensador</text><path d="M785,108 L785,145" stroke="#263c4a" stroke-width="3" fill="none" stroke-dasharray=""/><path d="M760,145 L810,145" stroke="#263c4a" stroke-width="3" fill="none" stroke-dasharray=""/><path d="M760,158 L810,158" stroke="#263c4a" stroke-width="3" fill="none" stroke-dasharray=""/><path d="M785,158 L785,197" stroke="#263c4a" stroke-width="3" fill="none" stroke-dasharray=""/><text x="745" y="140" font-size="18" fill="#263c4a" text-anchor="start">+</text><text x="659" y="231" font-size="16" fill="#263c4a" text-anchor="start">+ / − si polarizado</text><text x="659" y="259" font-size="16" fill="#263c4a" text-anchor="start">Almacena energía</text><rect x="15" y="290" width="300" height="210" rx="10" fill="#f8fafb" stroke="#d5e0e4" stroke-width="2"/><text x="29" y="318" font-size="21" fill="#263c4a" text-anchor="start">Diodo</text><path d="M155,335 L155,360" stroke="#263c4a" stroke-width="3" fill="none" stroke-dasharray=""/><path d="M139,360 L171,360 L155,386 Z" fill="white" stroke="#263c4a" stroke-width="3"/><path d="M137,386 L173,386" stroke="#263c4a" stroke-width="3" fill="none" stroke-dasharray=""/><path d="M155,386 L155,415" stroke="#263c4a" stroke-width="3" fill="none" stroke-dasharray=""/><text x="125" y="362" font-size="15" fill="#263c4a" text-anchor="start">A</text><text x="125" y="395" font-size="15" fill="#263c4a" text-anchor="start">K</text><text x="29" y="456" font-size="16" fill="#263c4a" text-anchor="start">A / K (barra)</text><text x="29" y="484" font-size="16" fill="#263c4a" text-anchor="start">Conduce en un sentido</text><rect x="330" y="290" width="300" height="210" rx="10" fill="#f8fafb" stroke="#d5e0e4" stroke-width="2"/><text x="344" y="318" font-size="21" fill="#263c4a" text-anchor="start">LED</text><path d="M470,335 L470,360" stroke="#263c4a" stroke-width="3" fill="none" stroke-dasharray=""/><path d="M454,360 L486,360 L470,386 Z" fill="white" stroke="#263c4a" stroke-width="3"/><path d="M452,386 L488,386" stroke="#263c4a" stroke-width="3" fill="none" stroke-dasharray=""/><path d="M470,386 L470,415" stroke="#263c4a" stroke-width="3" fill="none" stroke-dasharray=""/><text x="440" y="362" font-size="15" fill="#263c4a" text-anchor="start">A</text><text x="440" y="395" font-size="15" fill="#263c4a" text-anchor="start">K</text><path d="M491,365 L520,339" stroke="#b93649" stroke-width="3" fill="none" stroke-dasharray=""/><path d="M512,334 L520,339 L512,344" fill="none" stroke="#b93649" stroke-width="3" transform="rotate(-41.877869537884294 520 339)"/><path d="M495,384 L524,358" stroke="#b93649" stroke-width="3" fill="none" stroke-dasharray=""/><path d="M516,353 L524,358 L516,363" fill="none" stroke="#b93649" stroke-width="3" transform="rotate(-41.877869537884294 524 358)"/><text x="344" y="456" font-size="16" fill="#263c4a" text-anchor="start">A / K; flechas salen</text><text x="344" y="484" font-size="16" fill="#263c4a" text-anchor="start">Emite luz</text><rect x="645" y="290" width="300" height="210" rx="10" fill="#f8fafb" stroke="#d5e0e4" stroke-width="2"/><text x="659" y="318" font-size="21" fill="#263c4a" text-anchor="start">LDR</text><path d="M785,330 L785,350" stroke="#263c4a" stroke-width="3" fill="none" stroke-dasharray=""/><rect x="773" y="350" width="24" height="55" rx="0" fill="white" stroke="#263c4a" stroke-width="2"/><path d="M785,405 L785,425" stroke="#263c4a" stroke-width="3" fill="none" stroke-dasharray=""/><text x="750" y="430" font-size="17" fill="#263c4a" text-anchor="end"></text><circle cx="785" cy="377" r="35" fill="none" stroke="#263c4a" stroke-width="2"/><path d="M720,340 L754,365" stroke="#16725e" stroke-width="3" fill="none" stroke-dasharray=""/><path d="M746,360 L754,365 L746,370" fill="none" stroke="#16725e" stroke-width="3" transform="rotate(36.32682595212023 754 365)"/><path d="M720,360 L754,385" stroke="#16725e" stroke-width="3" fill="none" stroke-dasharray=""/><path d="M746,380 L754,385 L746,390" fill="none" stroke="#16725e" stroke-width="3" transform="rotate(36.32682595212023 754 385)"/><text x="659" y="456" font-size="16" fill="#263c4a" text-anchor="start">Dos extremos; flechas entran</text><text x="659" y="484" font-size="16" fill="#263c4a" text-anchor="start">Luz modifica R</text><rect x="15" y="515" width="300" height="210" rx="10" fill="#f8fafb" stroke="#d5e0e4" stroke-width="2"/><text x="29" y="543" font-size="21" fill="#263c4a" text-anchor="start">NTC</text><path d="M155,555 L155,575" stroke="#263c4a" stroke-width="3" fill="none" stroke-dasharray=""/><rect x="143" y="575" width="24" height="55" rx="0" fill="white" stroke="#263c4a" stroke-width="2"/><path d="M155,630 L155,650" stroke="#263c4a" stroke-width="3" fill="none" stroke-dasharray=""/><text x="178" y="606" font-size="17" fill="#263c4a" text-anchor="start"></text><path d="M133,635 L177,570 h12" stroke="#263c4a" stroke-width="3" fill="none"/><text x="105" y="617" font-size="14" fill="#263c4a" text-anchor="start">−t°</text><text x="29" y="681" font-size="16" fill="#263c4a" text-anchor="start">Dos extremos; −t°</text><text x="29" y="709" font-size="16" fill="#263c4a" text-anchor="start">Calor reduce R</text><rect x="330" y="515" width="300" height="210" rx="10" fill="#f8fafb" stroke="#d5e0e4" stroke-width="2"/><text x="344" y="543" font-size="21" fill="#263c4a" text-anchor="start">Potenciómetro</text><path d="M470,555 L470,575" stroke="#263c4a" stroke-width="3" fill="none" stroke-dasharray=""/><rect x="458" y="575" width="24" height="55" rx="0" fill="white" stroke="#263c4a" stroke-width="2"/><path d="M470,630 L470,650" stroke="#263c4a" stroke-width="3" fill="none" stroke-dasharray=""/><text x="435" y="639" font-size="17" fill="#263c4a" text-anchor="end"></text><path d="M535,602 L484,602" stroke="#b93649" stroke-width="3" fill="none" stroke-dasharray=""/><path d="M476,597 L484,602 L476,607" fill="none" stroke="#b93649" stroke-width="3" transform="rotate(180.0 484 602)"/><text x="535" y="585" font-size="13" fill="#263c4a" text-anchor="start">cursor</text><text x="344" y="681" font-size="16" fill="#263c4a" text-anchor="start">1 / cursor 2 / 3</text><text x="344" y="709" font-size="16" fill="#263c4a" text-anchor="start">Ajusta resistencia</text><rect x="645" y="515" width="300" height="210" rx="10" fill="#f8fafb" stroke="#d5e0e4" stroke-width="2"/><text x="659" y="543" font-size="21" fill="#263c4a" text-anchor="start">Transistor NPN</text><path d="M755,580 L755,635" stroke="#263c4a" stroke-width="3" fill="none" stroke-dasharray=""/><path d="M700,607 L755,607" stroke="#263c4a" stroke-width="3" fill="none" stroke-dasharray=""/><path d="M755,590 L815,560" stroke="#263c4a" stroke-width="3" fill="none" stroke-dasharray=""/><path d="M755,620 L815,655" stroke="#16725e" stroke-width="3" fill="none" stroke-dasharray=""/><path d="M807,650 L815,655 L807,660" fill="none" stroke="#16725e" stroke-width="3" transform="rotate(30.256437163529263 815 655)"/><text x="680" y="610" font-size="16" fill="#263c4a" text-anchor="start">B</text><text x="825" y="563" font-size="16" fill="#263c4a" text-anchor="start">C</text><text x="825" y="655" font-size="16" fill="#263c4a" text-anchor="start">E</text><text x="659" y="681" font-size="16" fill="#263c4a" text-anchor="start">B / C / E (flecha)</text><text x="659" y="709" font-size="16" fill="#263c4a" text-anchor="start">Controla corriente</text><rect x="15" y="740" width="300" height="210" rx="10" fill="#f8fafb" stroke="#d5e0e4" stroke-width="2"/><text x="29" y="768" font-size="21" fill="#263c4a" text-anchor="start">Interruptor</text><path d="M65,835 L130,835" stroke="#263c4a" stroke-width="3" fill="none" stroke-dasharray=""/><circle cx="130" cy="835" r="5" fill="#263c4a"/><text x="140" y="826" font-size="16" fill="#263c4a" text-anchor="start"></text><path d="M130,835 L190,800" stroke="#263c4a" stroke-width="3" fill="none" stroke-dasharray=""/><circle cx="200" cy="835" r="5" fill="#263c4a"/><text x="210" y="826" font-size="16" fill="#263c4a" text-anchor="start"></text><path d="M200,835 L260,835" stroke="#263c4a" stroke-width="3" fill="none" stroke-dasharray=""/><text x="29" y="906" font-size="16" fill="#263c4a" text-anchor="start">Dos contactos</text><text x="29" y="934" font-size="16" fill="#263c4a" text-anchor="start">Abre o cierra camino</text><rect x="330" y="740" width="300" height="210" rx="10" fill="#f8fafb" stroke="#d5e0e4" stroke-width="2"/><text x="344" y="768" font-size="21" fill="#263c4a" text-anchor="start">Voltímetro</text><circle cx="475" cy="830" r="22" fill="white" stroke="#263c4a" stroke-width="2"/><text x="475" y="836" font-size="18" fill="#263c4a" text-anchor="middle">V</text><path d="M453,830 L405,830" stroke="#263c4a" stroke-width="3" fill="none" stroke-dasharray=""/><path d="M497,830 L545,830" stroke="#263c4a" stroke-width="3" fill="none" stroke-dasharray=""/><text x="344" y="906" font-size="16" fill="#263c4a" text-anchor="start">Roja / negra</text><text x="344" y="934" font-size="16" fill="#263c4a" text-anchor="start">Mide entre dos nodos</text><rect x="645" y="740" width="300" height="210" rx="10" fill="#f8fafb" stroke="#d5e0e4" stroke-width="2"/><text x="659" y="768" font-size="21" fill="#263c4a" text-anchor="start">Amperímetro</text><circle cx="790" cy="830" r="22" fill="white" stroke="#263c4a" stroke-width="2"/><text x="790" y="836" font-size="18" fill="#263c4a" text-anchor="middle">A</text><path d="M768,830 L720,830" stroke="#263c4a" stroke-width="3" fill="none" stroke-dasharray=""/><path d="M812,830 L860,830" stroke="#263c4a" stroke-width="3" fill="none" stroke-dasharray=""/><text x="659" y="906" font-size="16" fill="#263c4a" text-anchor="start">Roja / negra</text><text x="659" y="934" font-size="16" fill="#263c4a" text-anchor="start">Se intercala en rama</text></g></svg>